<svg xmlns="http://www.w3.org/2000/svg" width="32" height="32"><defs><mask id="h"><rect width="32" height="32" fill="#fff"/><g fill="#000"><circle cx="16" cy="16" r="3.6"/></g></mask></defs><g fill="#fff"><g mask="url(#h)"><circle cx="16" cy="16" r="9.5"/><rect x="13.6" y="3.3" width="4.8" height="5" rx="0.7" transform="rotate(0 16 16)"/><rect x="13.6" y="3.3" width="4.8" height="5" rx="0.7" transform="rotate(45 16 16)"/><rect x="13.6" y="3.3" width="4.8" height="5" rx="0.7" transform="rotate(90 16 16)"/><rect x="13.6" y="3.3" width="4.8" height="5" rx="0.7" transform="rotate(135 16 16)"/><rect x="13.6" y="3.3" width="4.8" height="5" rx="0.7" transform="rotate(180 16 16)"/><rect x="13.6" y="3.3" width="4.8" height="5" rx="0.7" transform="rotate(225 16 16)"/><rect x="13.6" y="3.3" width="4.8" height="5" rx="0.7" transform="rotate(270 16 16)"/><rect x="13.6" y="3.3" width="4.8" height="5" rx="0.7" transform="rotate(315 16 16)"/></g></g></svg>
